<svg xmlns="http://www.w3.org/2000/svg" width="71.866" height="71.866" viewBox="0 0 71.866 71.866"><path d="M47.4,13.808a7.106,7.106,0,0,1,1.466,2.321,7.048,7.048,0,0,1,.611,2.687V54a2.92,2.92,0,0,1-2.932,2.932H5.5a2.827,2.827,0,0,1-2.077-.855A2.827,2.827,0,0,1,2.571,54V5.135a2.827,2.827,0,0,1,.855-2.077A2.827,2.827,0,0,1,5.5,2.2H32.865a7.05,7.05,0,0,1,2.687.611A7.106,7.106,0,0,1,37.874,4.28ZM33.843,6.357V17.839H45.325a3.337,3.337,0,0,0-.672-1.252L35.095,7.029a3.335,3.335,0,0,0-1.252-.672ZM45.57,53.02V21.748h-12.7a2.92,2.92,0,0,1-2.932-2.932V6.112H6.48V53.02H45.57ZM17.229,25.657a.891.891,0,0,1,.641-.382,1.011,1.011,0,0,1,.733.2l1.557,1.16a.891.891,0,0,1,.382.641,1.011,1.011,0,0,1-.2.733L14.786,35.43l5.558,7.421a1.011,1.011,0,0,1,.2.733.892.892,0,0,1-.382.641L18.6,45.385a1.011,1.011,0,0,1-.733.2.892.892,0,0,1-.641-.382l-6.9-9.192a.894.894,0,0,1,0-1.16ZM41.722,34.85a.894.894,0,0,1,0,1.16L34.82,45.2a.891.891,0,0,1-.641.382,1.011,1.011,0,0,1-.733-.2l-1.557-1.16a.891.891,0,0,1-.382-.641,1.011,1.011,0,0,1,.2-.733l5.558-7.421L31.7,28.009a1.011,1.011,0,0,1-.2-.733.891.891,0,0,1,.382-.641l1.557-1.16a1.011,1.011,0,0,1,.733-.2.892.892,0,0,1,.641.382ZM22.788,48.928a.893.893,0,0,1-.626-.4.991.991,0,0,1-.168-.733L26.208,22.42a.893.893,0,0,1,.4-.626.991.991,0,0,1,.733-.168l1.924.305a.893.893,0,0,1,.626.4.991.991,0,0,1,.168.733L25.841,48.439a.893.893,0,0,1-.4.626.991.991,0,0,1-.733.168Z" transform="translate(-3.376 33.429) rotate(-45)" opacity="0.2"/></svg>