<svg xmlns="http://www.w3.org/2000/svg" xmlns:xlink="http://www.w3.org/1999/xlink" width="125.792" height="72.019" viewBox="0 0 125.792 72.019"><defs><linearGradient id="a" y1="0.5" x2="1" y2="0.5" gradientUnits="objectBoundingBox"><stop offset="0" stop-color="#ff7bac"/><stop offset="1" stop-color="#ff7bac"/></linearGradient></defs><g transform="translate(-380.958 -852.064)"><path d="M477,918" transform="translate(8.86 6.083)" fill="#fff"/><g transform="translate(396.341 864.169)"><path d="M440.917,909.022H395.042V882.807h39.321V869.7H398.319v-6.553h42.6ZM401.6,902.468h32.768V889.361H401.6Z" transform="translate(-395.042 -863.147)" fill="url(#a)"/><g transform="translate(49.151)"><path d="M446.6,909.018h-6.554V863.147h45.875v26.62H446.6Zm0-25.8h32.768V869.7H446.6Z" transform="translate(-440.042 -863.147)" fill="url(#a)"/></g></g><g transform="translate(380.958 852.064)"><path d="M506.75,922.149H394.611A13.669,13.669,0,0,1,380.958,908.5V852.064H493.1a13.669,13.669,0,0,1,13.653,13.653Zm-120.33-64.624V908.5a8.2,8.2,0,0,0,8.192,8.192H501.288V865.717a8.2,8.2,0,0,0-8.192-8.192Z" transform="translate(-380.958 -852.064)" fill="url(#a)"/></g></g></svg>