<svg xmlns="http://www.w3.org/2000/svg" width="737.513" height="437.479" viewBox="0 0 737.513 437.479"><g transform="translate(-137.4 -83.921)"><path d="M174.461,97.649a8.478,8.478,0,1,0-15.726-5.491,8.48,8.48,0,1,0-11.846,10.212,8.48,8.48,0,1,0,6.051,14.421,8.48,8.48,0,1,0,15.586-1.3,8.479,8.479,0,1,0,3.581-15.224A8.437,8.437,0,0,0,174.461,97.649Z" transform="translate(0)" fill="#e26144" stroke="rgba(0,0,0,0)" stroke-width="2"/><path d="M229.952,198.894H166.29L177.3,242.043h41.646Z" transform="translate(-8.587 -35.12)" fill="#dcdddf" stroke="rgba(0,0,0,0)" stroke-width="2"/><path d="M225.241,198.894l-11.008,43.149H233.72l11.008-43.149Z" transform="translate(-23.363 -35.12)" fill="#c2c2c4" stroke="rgba(0,0,0,0)" stroke-width="2"/><rect width="21.928" height="28.294" transform="translate(184.582 232.388)" fill="#e26144" stroke="rgba(0,0,0,0)" stroke-width="2"/><rect width="21.928" height="28.294" transform="translate(343.737 232.388)" fill="#e26144" stroke="rgba(0,0,0,0)" stroke-width="2"/><rect width="261.04" height="25.062" rx="12.531" transform="translate(144.603 207.376)" fill="#f8a200" stroke="rgba(0,0,0,0)" stroke-width="2"/><path d="M494.248,261.921H466.425a12.522,12.522,0,0,1,12.486,12.486v.091a12.522,12.522,0,0,1-12.486,12.486h27.823A12.522,12.522,0,0,0,506.733,274.5v-.091A12.522,12.522,0,0,0,494.248,261.921Z" transform="translate(-101.09 -54.545)" fill="#f77b00" stroke="rgba(0,0,0,0)" stroke-width="2"/><path d="M430.495,419.656V381.393a22.466,22.466,0,0,0-22.4-22.4H334.453a22.466,22.466,0,0,0-22.4,22.4v38.263a22.466,22.466,0,0,0,22.4,22.4H384.9l42.418,14.326-10.359-16.17A22.475,22.475,0,0,0,430.495,419.656Z" transform="translate(-53.512 -84.463)" fill="#afe1f2" stroke="rgba(0,0,0,0)" stroke-width="2"/><path d="M468.274,419.656V381.393a22.466,22.466,0,0,0-22.4-22.4H434.633a22.466,22.466,0,0,1,22.4,22.4v38.263A22.475,22.475,0,0,1,443.5,440.213l7.256,11.325,14.344,4.845-10.359-16.17A22.475,22.475,0,0,0,468.274,419.656Z" transform="translate(-91.291 -84.463)" fill="#74ccf4" stroke="rgba(0,0,0,0)" stroke-width="2"/><path d="M594.547,265.294S574.4,155.089,646.673,169.106c.637.122,25.845-14.455,53.131-1.9,36.795,16.932,42.482,79.714,23.445,98.751S594.547,265.294,594.547,265.294Z" transform="translate(-139.781 -23.781)" fill="#cb553e" stroke="rgba(0,0,0,0)" stroke-width="2"/><path d="M725.45,167.207c-22.119-10.178-42.87-2.528-50.277.67a55.282,55.282,0,0,1,13.043,4.148c36.795,16.932,42.482,79.714,23.445,98.751a17.731,17.731,0,0,1-5.3,3.465c19.366.152,36.109-1.86,42.533-8.284C767.932,246.921,762.245,184.139,725.45,167.207Z" transform="translate(-165.426 -23.781)" fill="#ba3422" stroke="rgba(0,0,0,0)" stroke-width="2"/><path d="M594.547,265.294S574.4,155.089,646.673,169.106c.637.122,25.845-14.455,53.131-1.9,36.795,16.932,42.482,79.714,23.445,98.751S594.547,265.294,594.547,265.294Z" transform="translate(-139.781 -23.781)" fill="rgba(101,101,101,0.8)" stroke="#444241" stroke-miterlimit="10" stroke-width="2"/><g transform="translate(249.759 455.902)"><path d="M0,0H500.994a0,0,0,0,1,0,0V17.09a32.688,32.688,0,0,1-32.688,32.688H32.688A32.688,32.688,0,0,1,0,17.09V0A0,0,0,0,1,0,0Z" transform="translate(33.453 14.72)" fill="#e26144" stroke="rgba(0,0,0,0)" stroke-width="2"/><path d="M363.238,669.61V642.445H347.716V669.61a22.613,22.613,0,0,0,22.613,22.613h15.522A22.613,22.613,0,0,1,363.238,669.61Z" transform="translate(-314.263 -627.726)" fill="#ef8925" stroke="rgba(0,0,0,0)" stroke-width="2"/><path d="M946.549,642.445V669.61a22.613,22.613,0,0,1-22.614,22.613h79.753A22.613,22.613,0,0,0,1026.3,669.61V642.445Z" transform="translate(-491.855 -627.726)" fill="#cb553e" stroke="rgba(0,0,0,0)" stroke-width="2"/><path d="M0,0H500.994a0,0,0,0,1,0,0V17.09a32.688,32.688,0,0,1-32.688,32.688H32.688A32.688,32.688,0,0,1,0,17.09V0A0,0,0,0,1,0,0Z" transform="translate(33.453 14.72)" fill="rgba(32,68,75,0)" stroke="#444241" stroke-miterlimit="10" stroke-width="2"/><rect width="557.195" height="28.601" rx="14.3" transform="translate(0 0)" fill="#f8a200" stroke="rgba(0,0,0,0)" stroke-width="2"/><path d="M310.064,635.68v-.422a14.131,14.131,0,0,1,14.089-14.09h-10.7a14.131,14.131,0,0,0-14.089,14.09v.422a14.131,14.131,0,0,0,14.089,14.089h10.7A14.131,14.131,0,0,1,310.064,635.68Z" transform="translate(-299.359 -621.168)" fill="#fff" stroke="rgba(0,0,0,0)" stroke-width="2" opacity="0.46"/><path d="M1041.262,621.168h-96.88a14.131,14.131,0,0,1,14.089,14.09v.422a14.131,14.131,0,0,1-14.089,14.089h96.88a14.13,14.13,0,0,0,14.089-14.089v-.422A14.131,14.131,0,0,0,1041.262,621.168Z" transform="translate(-498.157 -621.168)" fill="#f77b00" stroke="rgba(0,0,0,0)" stroke-width="2"/><rect width="557.195" height="28.601" rx="14.3" transform="translate(0 0)" fill="rgba(0,0,0,0)" stroke="#444241" stroke-miterlimit="10" stroke-width="2"/></g><g transform="translate(380.12 191.618)"><path d="M772.818,561.749l-15.692-87.582c-11.46-12.675-57.028-29.059-97.286-39.964l-57.236.2c-39.917,10.9-87.724,27.164-99.114,39.762L487.8,561.749Z" transform="translate(-487.797 -299.261)" fill="#74ccf4" stroke="rgba(0,0,0,0)" stroke-width="2"/><circle cx="12.766" cy="12.766" r="12.766" transform="translate(72.548 34.5)" fill="#e2aa6d" stroke="rgba(0,0,0,0)" stroke-width="2"/><circle cx="12.766" cy="12.766" r="12.766" transform="translate(72.548 34.5)" fill="rgba(0,0,0,0)" stroke="#444241" stroke-miterlimit="10" stroke-width="2"/><path d="M723.823,264.606l-18.339-4.494a116.548,116.548,0,0,1-33.994-14.342l-10.615-6.629c-23.349,22.272-48.18,25.464-48.18,25.464l-.047,20.2c0,30.705,24.892,74.13,55.6,74.13s55.6-43.424,55.6-74.13Z" transform="translate(-526.276 -239.142)" fill="#fee3be" stroke="rgba(0,0,0,0)" stroke-width="2"/><circle cx="12.766" cy="12.766" r="12.766" transform="translate(186.94 35.517)" fill="#e2aa6d" stroke="rgba(0,0,0,0)" stroke-width="2"/><circle cx="12.766" cy="12.766" r="12.766" transform="translate(186.94 35.517)" fill="rgba(0,0,0,0)" stroke="#444241" stroke-miterlimit="10" stroke-width="2"/><path d="M772.818,561.749l-15.692-87.582c-11.46-12.675-57.028-29.059-97.286-39.964l-57.236.2c-39.917,10.9-87.724,27.164-99.114,39.762L487.8,561.749Z" transform="translate(-487.797 -299.261)" fill="rgba(0,0,0,0)" stroke="#444241" stroke-miterlimit="10" stroke-width="2"/><g transform="translate(109.923 103.406)"><path d="M710.134,389.309v32.809s-5.571,21.229-31.835,26.5c-27.383-7.192-31.608-26.5-31.608-26.5v-33.5C655.749,398.449,666.8,405,678.736,405,690.388,405,701.2,398.749,710.134,389.309Z" transform="translate(-646.691 -388.617)" fill="#fee3be" stroke="rgba(0,0,0,0)" stroke-width="2"/></g><g transform="translate(121.558)"><path d="M703.457,252.064a116.574,116.574,0,0,1-11.495-6.293l-10.615-6.629q-1.135,1.083-2.274,2.1A116.523,116.523,0,0,0,703.457,252.064Z" transform="translate(-668.307 -239.142)" fill="#e2aa6d" stroke="rgba(0,0,0,0)" stroke-width="2"/><path d="M739.5,274.262l-15.473-3.792.017,17.92c0,30.705-24.892,74.13-55.6,74.13a33.015,33.015,0,0,1-4.935-.38,37.7,37.7,0,0,0,20.411,6.45c30.705,0,55.6-43.424,55.6-74.13Z" transform="translate(-663.51 -248.797)" fill="#e2aa6d" stroke="rgba(0,0,0,0)" stroke-width="2"/></g><path d="M710.134,389.56v9.794c-8.93,12.872-19.745,21.4-31.4,21.4-11.935,0-22.987-8.949-32.045-22.342v-9.793c9.058,13.4,20.11,11.88,32.045,11.88C690.388,400.5,701.2,402.432,710.134,389.56Z" transform="translate(-536.768 -285.211)" fill="#e2aa6d" stroke="rgba(0,0,0,0)" stroke-width="2"/><path d="M723.823,264.606l-18.339-4.494a116.548,116.548,0,0,1-33.994-14.342l-10.615-6.629c-23.349,22.272-48.18,25.464-48.18,25.464l-.047,20.2c0,30.705,24.892,74.13,55.6,74.13s55.6-43.424,55.6-74.13Z" transform="translate(-526.276 -239.142)" fill="rgba(0,0,0,0)" stroke="#444241" stroke-miterlimit="10" stroke-width="2"/><g transform="translate(109.923 103.406)"><path d="M710.134,389.309v32.809s-5.571,21.229-31.835,26.5c-27.383-7.192-31.608-26.5-31.608-26.5v-33.5C655.749,398.449,666.8,405,678.736,405,690.388,405,701.2,398.749,710.134,389.309Z" transform="translate(-646.691 -388.617)" fill="rgba(0,0,0,0)" stroke="#444241" stroke-miterlimit="10" stroke-width="2"/></g><g transform="translate(99.405 41.621)"><path d="M14.344,0h6.926A14.343,14.343,0,0,1,35.613,14.343V14.6A14.343,14.343,0,0,1,21.269,28.943H14.344A14.344,14.344,0,0,1,0,14.6v-.256A14.344,14.344,0,0,1,14.344,0Z" fill="#fff" stroke="rgba(0,0,0,0)" stroke-width="2"/><path d="M14.344,0h6.926A14.343,14.343,0,0,1,35.613,14.343V14.6A14.343,14.343,0,0,1,21.269,28.943H14.344A14.344,14.344,0,0,1,0,14.6v-.256A14.344,14.344,0,0,1,14.344,0Z" fill="rgba(0,0,0,0)" stroke="#444241" stroke-miterlimit="10" stroke-width="2"/><g transform="translate(50.172)"><path d="M14.343,0h6.926A14.344,14.344,0,0,1,35.613,14.344V14.6A14.344,14.344,0,0,1,21.27,28.943H14.343A14.343,14.343,0,0,1,0,14.6v-.256A14.343,14.343,0,0,1,14.343,0Z" fill="#fff" stroke="rgba(0,0,0,0)" stroke-width="2"/><path d="M14.343,0h6.926A14.344,14.344,0,0,1,35.613,14.344V14.6A14.344,14.344,0,0,1,21.27,28.943H14.343A14.343,14.343,0,0,1,0,14.6v-.256A14.343,14.343,0,0,1,14.343,0Z" fill="rgba(0,0,0,0)" stroke="#444241" stroke-miterlimit="10" stroke-width="2"/></g><line x2="14.561" transform="translate(35.089 11.622)" fill="none" stroke="#444241" stroke-miterlimit="10" stroke-width="2"/></g></g><g transform="translate(425.682 327.337)"><path d="M18.447,0H183.5a18.447,18.447,0,0,1,18.447,18.447v90.078A17.777,17.777,0,0,1,184.17,126.3H17.777A17.777,17.777,0,0,1,0,108.524V18.447A18.447,18.447,0,0,1,18.447,0Z" transform="translate(0 0)" fill="#dcdddf" stroke="rgba(0,0,0,0)" stroke-width="2"/><path d="M565.284,549.329V448.088a12.762,12.762,0,0,1,12.762-12.762H566.418a12.762,12.762,0,0,0-12.762,12.762V549.329a12.3,12.3,0,0,0,12.3,12.3h11.628A12.3,12.3,0,0,1,565.284,549.329Z" transform="translate(-553.656 -435.326)" fill="#f0f1f2" stroke="rgba(0,0,0,0)" stroke-width="2"/><path d="M813.888,435.326H784.174a12.762,12.762,0,0,1,12.762,12.762V549.329a12.3,12.3,0,0,1-12.3,12.3h29.714a12.3,12.3,0,0,0,12.3-12.3V448.088A12.762,12.762,0,0,0,813.888,435.326Z" transform="translate(-624.702 -435.326)" fill="#c2c2c4" stroke="rgba(0,0,0,0)" stroke-width="2"/><path d="M18.447,0H183.5a18.447,18.447,0,0,1,18.447,18.447v90.078A17.777,17.777,0,0,1,184.17,126.3H17.777A17.777,17.777,0,0,1,0,108.524V18.447A18.447,18.447,0,0,1,18.447,0Z" transform="translate(0 0)" fill="rgba(0,0,0,0)" stroke="#444241" stroke-miterlimit="10" stroke-width="2"/><g transform="translate(76.819 42.674)"><path d="M704.651,499.473a13.183,13.183,0,0,0-17.009,1.418l-.019.082v-.082a13.183,13.183,0,0,0-17.009-1.418,14.77,14.77,0,0,0-5.653,14.741c1.179,6.348,5.756,21.455,22.662,23.46v-.068l.019.068c16.906-2,21.483-17.112,22.662-23.46A14.77,14.77,0,0,0,704.651,499.473Z" transform="translate(-664.698 -497.012)" fill="#fff" stroke="rgba(0,0,0,0)" stroke-width="2"/></g></g><path d="M679.2,373.452a35.575,35.575,0,0,0,11.324,1.624,37.491,37.491,0,0,0,10.414-1.328" transform="translate(-166.667 -88.919)" fill="rgba(0,0,0,0)" stroke="#444241" stroke-linecap="round" stroke-linejoin="round" stroke-width="2"/><g transform="translate(690.449 99.709)"><circle cx="69.266" cy="69.266" r="69.266" transform="translate(2.203 2.203)" fill="#f8a200" stroke="rgba(0,0,0,0)" stroke-width="2"/><circle cx="49.418" cy="49.418" r="49.418" transform="translate(22.051 22.051)" fill="#fff" stroke="rgba(0,0,0,0)" stroke-width="2"/><path d="M1036.892,138.162a49.863,49.863,0,0,0-6.278.411,49.406,49.406,0,0,1,0,98.013,49.413,49.413,0,1,0,6.278-98.424Z" transform="translate(-965.423 -116.111)" fill="#dcdddf" stroke="rgba(0,0,0,0)" stroke-width="2"/><circle cx="69.266" cy="69.266" r="69.266" transform="translate(2.203 2.203)" fill="rgba(0,0,0,0)" stroke="#444241" stroke-miterlimit="10" stroke-width="2"/><circle cx="50.536" cy="50.536" r="50.536" transform="translate(0 71.469) rotate(-45)" fill="rgba(0,0,0,0)" stroke="#444241" stroke-miterlimit="10" stroke-width="2"/><circle cx="8.316" cy="8.316" r="8.316" transform="translate(60.514 72.597) rotate(-45)" fill="#f8a200" stroke="rgba(0,0,0,0)" stroke-width="2"/><circle cx="8.316" cy="8.316" r="8.316" transform="translate(60.514 72.597) rotate(-45)" fill="rgba(0,0,0,0)" stroke="#444241" stroke-miterlimit="10" stroke-width="2"/><line y1="28.354" transform="translate(72.279 35.418)" fill="none" stroke="#444241" stroke-linecap="round" stroke-linejoin="round" stroke-width="2"/><line x2="12.759" y2="7.089" transform="translate(52.229 61.747)" fill="none" stroke="#444241" stroke-linecap="round" stroke-linejoin="round" stroke-width="2"/></g><rect width="261.04" height="25.062" rx="12.531" transform="translate(144.603 207.376)" fill="rgba(0,0,0,0)" stroke="#444241" stroke-linecap="round" stroke-linejoin="round" stroke-width="2"/><path d="M430.495,419.656V381.393a22.466,22.466,0,0,0-22.4-22.4H334.453a22.466,22.466,0,0,0-22.4,22.4v38.263a22.466,22.466,0,0,0,22.4,22.4H384.9l42.418,14.326-10.359-16.17A22.475,22.475,0,0,0,430.495,419.656Z" transform="translate(-53.512 -84.463)" fill="rgba(0,0,0,0)" stroke="#444241" stroke-linecap="round" stroke-linejoin="round" stroke-width="2"/><g transform="translate(281.139 297.578)"><path d="M361.573,425.716a2.424,2.424,0,0,1-1.5-.516l-14.417-11.255a2.439,2.439,0,0,1,0-3.846l14.417-11.255a2.439,2.439,0,0,1,3,3.846l-11.954,9.332,11.954,9.332a2.439,2.439,0,0,1-1.5,4.362Z" transform="translate(-344.718 -394.164)" fill="#444241" stroke="rgba(0,0,0,0)" stroke-width="2"/><path d="M415.674,425.716a2.439,2.439,0,0,1-1.5-4.362l11.955-9.332-11.955-9.332a2.439,2.439,0,1,1,3-3.846L431.591,410.1a2.439,2.439,0,0,1,0,3.846L417.174,425.2A2.43,2.43,0,0,1,415.674,425.716Z" transform="translate(-365.835 -394.164)" fill="#444241" stroke="rgba(0,0,0,0)" stroke-width="2"/><path d="M380.262,430.228a2.441,2.441,0,0,1-2.2-3.483l15.619-33.04a2.439,2.439,0,1,1,4.41,2.084l-15.619,33.04A2.439,2.439,0,0,1,380.262,430.228Z" transform="translate(-354.921 -392.309)" fill="#444241" stroke="rgba(0,0,0,0)" stroke-width="2"/></g><path d="M913.276,474.87V436.607a22.466,22.466,0,0,1,22.4-22.4h73.641a22.466,22.466,0,0,1,22.4,22.4V474.87a22.466,22.466,0,0,1-22.4,22.4H958.871L916.452,511.6l10.359-16.171A22.476,22.476,0,0,1,913.276,474.87Z" transform="translate(-238.81 -101.48)" fill="#afe1f2" stroke="rgba(0,0,0,0)" stroke-width="2"/><path d="M913.276,474.87V436.607a22.466,22.466,0,0,1,22.4-22.4h11.24a22.466,22.466,0,0,0-22.4,22.4V474.87a22.476,22.476,0,0,0,13.535,20.557L930.8,506.752,916.452,511.6l10.359-16.171A22.476,22.476,0,0,1,913.276,474.87Z" transform="translate(-238.81 -101.48)" fill="#74ccf4" stroke="rgba(0,0,0,0)" stroke-width="2"/><path d="M913.276,474.87V436.607a22.466,22.466,0,0,1,22.4-22.4h73.641a22.466,22.466,0,0,1,22.4,22.4V474.87a22.466,22.466,0,0,1-22.4,22.4H958.871L916.452,511.6l10.359-16.171A22.476,22.476,0,0,1,913.276,474.87Z" transform="translate(-238.81 -101.48)" fill="rgba(0,0,0,0)" stroke="#444241" stroke-linecap="round" stroke-linejoin="round" stroke-width="2"/><path d="M4.48,0H24.548a4.48,4.48,0,0,1,4.48,4.48v0a4.48,4.48,0,0,1-4.48,4.48H4.48A4.48,4.48,0,0,1,0,4.48v0A4.48,4.48,0,0,1,4.48,0Z" transform="translate(707.082 329.06)" fill="#fff" stroke="rgba(0,0,0,0)" stroke-width="2"/><path d="M4.48,0H60.361a4.48,4.48,0,0,1,4.48,4.48v0a4.48,4.48,0,0,1-4.48,4.48H4.48A4.48,4.48,0,0,1,0,4.48v0A4.48,4.48,0,0,1,4.48,0Z" transform="translate(707.082 343.679)" fill="#fff" stroke="rgba(0,0,0,0)" stroke-width="2"/><path d="M4.48,0H44.528a4.48,4.48,0,0,1,4.48,4.48v0a4.48,4.48,0,0,1-4.48,4.48H4.48A4.48,4.48,0,0,1,0,4.48v0A4.48,4.48,0,0,1,4.48,0Z" transform="translate(707.082 357.826)" fill="#fff" stroke="rgba(0,0,0,0)" stroke-width="2"/><path d="M4.48,0H24.925A4.48,4.48,0,0,1,29.4,4.48v0a4.48,4.48,0,0,1-4.48,4.48H4.48A4.48,4.48,0,0,1,0,4.48v0A4.48,4.48,0,0,1,4.48,0Z" transform="translate(707.082 371.265)" fill="#fff" stroke="rgba(0,0,0,0)" stroke-width="2"/><g transform="translate(805.64 269.415)"><line y2="12.256" transform="translate(20.268)" fill="none" stroke="#444241" stroke-linecap="round" stroke-linejoin="round" stroke-width="2"/><line x2="12.256" transform="translate(0 20.051)" fill="none" stroke="#444241" stroke-linecap="round" stroke-linejoin="round" stroke-width="2"/><line y1="12.256" transform="translate(20.051 28.063)" fill="none" stroke="#444241" stroke-linecap="round" stroke-linejoin="round" stroke-width="2"/><line x1="12.256" transform="translate(28.063 20.268)" fill="none" stroke="#444241" stroke-linecap="round" stroke-linejoin="round" stroke-width="2"/></g><g transform="translate(235.235 384.424)"><line y2="12.256" transform="translate(20.268)" fill="none" stroke="#444241" stroke-linecap="round" stroke-linejoin="round" stroke-width="2"/><line x2="12.256" transform="translate(0 20.051)" fill="none" stroke="#444241" stroke-linecap="round" stroke-linejoin="round" stroke-width="2"/><line y1="12.256" transform="translate(20.051 28.063)" fill="none" stroke="#444241" stroke-linecap="round" stroke-linejoin="round" stroke-width="2"/><line x1="12.256" transform="translate(28.063 20.268)" fill="none" stroke="#444241" stroke-linecap="round" stroke-linejoin="round" stroke-width="2"/></g><g transform="translate(607.667 121.442)"><line y2="11.415" transform="translate(18.877)" fill="none" stroke="#444241" stroke-linecap="round" stroke-linejoin="round" stroke-width="2"/><line x2="11.415" transform="translate(0 18.675)" fill="none" stroke="#444241" stroke-linecap="round" stroke-linejoin="round" stroke-width="2"/><line y1="11.415" transform="translate(18.675 26.137)" fill="none" stroke="#444241" stroke-linecap="round" stroke-linejoin="round" stroke-width="2"/><line x1="11.415" transform="translate(26.137 18.877)" fill="none" stroke="#444241" stroke-linecap="round" stroke-linejoin="round" stroke-width="2"/></g><circle cx="6.896" cy="6.896" r="6.896" transform="translate(612.946 290.106)" fill="rgba(0,0,0,0)" stroke="#444241" stroke-linecap="round" stroke-linejoin="round" stroke-width="2"/><circle cx="6.896" cy="6.896" r="6.896" transform="translate(331.786 398.857)" fill="rgba(0,0,0,0)" stroke="#444241" stroke-linecap="round" stroke-linejoin="round" stroke-width="2"/><g transform="translate(627.122 213.997)"><g transform="translate(12.908)"><line y2="2.213" fill="none" stroke="#444241" stroke-linecap="round" stroke-linejoin="round" stroke-width="2"/><line y2="2.213" transform="translate(0 27.596)" fill="none" stroke="#444241" stroke-linecap="round" stroke-linejoin="round" stroke-width="2"/></g><g transform="translate(0 7.452)"><line x2="1.916" y2="1.106" fill="none" stroke="#444241" stroke-linecap="round" stroke-linejoin="round" stroke-width="2"/><line x2="1.917" y2="1.107" transform="translate(23.899 13.798)" fill="none" stroke="#444241" stroke-linecap="round" stroke-linejoin="round" stroke-width="2"/></g><g transform="translate(0 7.452)"><line y1="1.107" x2="1.916" transform="translate(0 13.798)" fill="none" stroke="#444241" stroke-linecap="round" stroke-linejoin="round" stroke-width="2"/><line y1="1.106" x2="1.917" transform="translate(23.899)" fill="none" stroke="#444241" stroke-linecap="round" stroke-linejoin="round" stroke-width="2"/></g></g><g transform="translate(847.731 336.648)"><g transform="translate(12.908)"><line y2="2.213" fill="none" stroke="#444241" stroke-linecap="round" stroke-linejoin="round" stroke-width="2"/><line y2="2.213" transform="translate(0 27.596)" fill="none" stroke="#444241" stroke-linecap="round" stroke-linejoin="round" stroke-width="2"/></g><g transform="translate(0 7.452)"><line x2="1.917" y2="1.107" fill="none" stroke="#444241" stroke-linecap="round" stroke-linejoin="round" stroke-width="2"/><line x2="1.917" y2="1.106" transform="translate(23.899 13.798)" fill="none" stroke="#444241" stroke-linecap="round" stroke-linejoin="round" stroke-width="2"/></g><g transform="translate(0 7.452)"><line y1="1.106" x2="1.917" transform="translate(0 13.798)" fill="none" stroke="#444241" stroke-linecap="round" stroke-linejoin="round" stroke-width="2"/><line y1="1.107" x2="1.917" transform="translate(23.899)" fill="none" stroke="#444241" stroke-linecap="round" stroke-linejoin="round" stroke-width="2"/></g></g><g transform="translate(166.342 326.437)"><g transform="translate(12.908)"><line y2="2.213" fill="none" stroke="#444241" stroke-linecap="round" stroke-linejoin="round" stroke-width="2"/><line y2="2.213" transform="translate(0 27.596)" fill="none" stroke="#444241" stroke-linecap="round" stroke-linejoin="round" stroke-width="2"/></g><g transform="translate(0 7.452)"><line x2="1.917" y2="1.107" fill="none" stroke="#444241" stroke-linecap="round" stroke-linejoin="round" stroke-width="2"/><line x2="1.917" y2="1.107" transform="translate(23.899 13.798)" fill="none" stroke="#444241" stroke-linecap="round" stroke-linejoin="round" stroke-width="2"/></g><g transform="translate(0 7.452)"><line y1="1.107" x2="1.917" transform="translate(0 13.798)" fill="none" stroke="#444241" stroke-linecap="round" stroke-linejoin="round" stroke-width="2"/><line y1="1.107" x2="1.917" transform="translate(23.899)" fill="none" stroke="#444241" stroke-linecap="round" stroke-linejoin="round" stroke-width="2"/></g></g><g transform="translate(394.888 124.594)"><g transform="translate(14.273)"><line y2="2.447" fill="none" stroke="#444241" stroke-linecap="round" stroke-linejoin="round" stroke-width="2"/><line y2="2.447" transform="translate(0 30.514)" fill="none" stroke="#444241" stroke-linecap="round" stroke-linejoin="round" stroke-width="2"/></g><g transform="translate(0 8.24)"><line x2="2.119" y2="1.224" fill="none" stroke="#444241" stroke-linecap="round" stroke-linejoin="round" stroke-width="2"/><line x2="2.119" y2="1.224" transform="translate(26.426 15.257)" fill="none" stroke="#444241" stroke-linecap="round" stroke-linejoin="round" stroke-width="2"/></g><g transform="translate(0 8.24)"><line y1="1.224" x2="2.119" transform="translate(0 15.257)" fill="none" stroke="#444241" stroke-linecap="round" stroke-linejoin="round" stroke-width="2"/><line y1="1.224" x2="2.119" transform="translate(26.426)" fill="none" stroke="#444241" stroke-linecap="round" stroke-linejoin="round" stroke-width="2"/></g></g><rect width="21.928" height="28.294" transform="translate(184.582 232.388)" fill="rgba(0,0,0,0)" stroke="#444241" stroke-linecap="round" stroke-linejoin="round" stroke-width="2"/><rect width="21.928" height="28.294" transform="translate(343.737 232.388)" fill="rgba(0,0,0,0)" stroke="#444241" stroke-linecap="round" stroke-linejoin="round" stroke-width="2"/><path d="M229.952,198.894H166.29L177.3,242.043h41.646Z" transform="translate(-8.587 -35.12)" fill="rgba(0,0,0,0)" stroke="#444241" stroke-linecap="round" stroke-linejoin="round" stroke-width="2"/><rect width="35.991" height="84.746" transform="translate(257.974 120.526)" fill="#e26144" stroke="rgba(0,0,0,0)" stroke-width="2"/><rect width="12.648" height="84.746" transform="translate(281.317 120.526)" fill="#ba3422" stroke="rgba(0,0,0,0)" stroke-width="2"/><rect width="35.991" height="62.275" transform="translate(294.313 142.997)" fill="#f8a200" stroke="rgba(0,0,0,0)" stroke-width="2"/><rect width="15.006" height="62.275" transform="translate(315.298 142.997)" fill="#f77b00" stroke="rgba(0,0,0,0)" stroke-width="2"/><rect width="35.991" height="79.726" transform="translate(331.057 125.547)" fill="#afe1f2" stroke="rgba(0,0,0,0)" stroke-width="2"/><rect width="12.598" height="79.726" transform="translate(354.449 125.547)" fill="#74ccf4" stroke="rgba(0,0,0,0)" stroke-width="2"/><rect width="35.991" height="84.746" transform="translate(257.974 120.526)" fill="rgba(0,0,0,0)" stroke="#444241" stroke-linecap="round" stroke-linejoin="round" stroke-width="2"/><rect width="35.991" height="62.275" transform="translate(294.313 142.997)" fill="rgba(0,0,0,0)" stroke="#444241" stroke-linecap="round" stroke-linejoin="round" stroke-width="2"/><rect width="35.991" height="79.726" transform="translate(331.057 125.547)" fill="rgba(0,0,0,0)" stroke="#444241" stroke-linecap="round" stroke-linejoin="round" stroke-width="2"/><path d="M201.775,177.6l.238-5.312a49.7,49.7,0,0,0-19.261-41.549h0" transform="translate(-13.661 -14.113)" fill="rgba(0,0,0,0)" stroke="#444241" stroke-linecap="round" stroke-linejoin="round" stroke-width="2"/><path d="M209.657,162.232a49.675,49.675,0,0,1,13.4-15.819h0" transform="translate(-21.953 -18.945)" fill="rgba(0,0,0,0)" stroke="#444241" stroke-linecap="round" stroke-linejoin="round" stroke-width="2"/><path d="M174.461,97.649a8.478,8.478,0,1,0-15.726-5.491,8.48,8.48,0,1,0-11.846,10.212,8.48,8.48,0,1,0,6.051,14.421,8.48,8.48,0,1,0,15.586-1.3,8.479,8.479,0,1,0,3.581-15.224A8.437,8.437,0,0,0,174.461,97.649Z" transform="translate(0)" fill="rgba(0,0,0,0)" stroke="#444241" stroke-linecap="round" stroke-linejoin="round" stroke-width="2"/><circle cx="4.524" cy="4.524" r="4.524" transform="translate(155.404 101.08)" fill="#fff" stroke="rgba(0,0,0,0)" stroke-width="2"/><path d="M254.639,125.989a8.024,8.024,0,1,0-10.277-11.956,8.026,8.026,0,1,0-14.545,2.747,8.026,8.026,0,1,0-1.882,14.682,8.025,8.025,0,1,0,13.382,6.327,8.025,8.025,0,1,0,10.152-10.772A7.992,7.992,0,0,0,254.639,125.989Z" transform="translate(-24.459 -5.98)" fill="#e26144" stroke="rgba(0,0,0,0)" stroke-width="2"/><path d="M254.639,125.989a8.024,8.024,0,1,0-10.277-11.956,8.026,8.026,0,1,0-14.545,2.747,8.026,8.026,0,1,0-1.882,14.682,8.025,8.025,0,1,0,13.382,6.327,8.025,8.025,0,1,0,10.152-10.772A7.992,7.992,0,0,0,254.639,125.989Z" transform="translate(-24.459 -5.98)" fill="rgba(0,0,0,0)" stroke="#444241" stroke-linecap="round" stroke-linejoin="round" stroke-width="2"/><path d="M250.193,135.324a4.281,4.281,0,1,0-5.851,1.561A4.281,4.281,0,0,0,250.193,135.324Z" transform="translate(-31.985 -13.546)" fill="#fff" stroke="rgba(0,0,0,0)" stroke-width="2"/></g></svg>